<svg xmlns="http://www.w3.org/2000/svg" viewBox="0 0 120 120" fill="none">
  <defs>
    <radialGradient id="favBadgeBg" cx="50%" cy="40%" r="60%">
      <stop offset="0%" stopColor="#1E1E1E" />
      <stop offset="100%" stopColor="#0B0B0B" />
    </radialGradient>
    <linearGradient id="favGold" x1="0%" y1="0%" x2="100%" y2="100%">
      <stop offset="0%" stopColor="#FFDF6D" />
      <stop offset="45%" stopColor="#F5B800" />
      <stop offset="100%" stopColor="#D99B00" />
    </linearGradient>
    <linearGradient id="favCream" x1="0%" y1="0%" x2="0%" y2="100%">
      <stop offset="0%" stopColor="#FFFFFF" />
      <stop offset="60%" stopColor="#FFFBEB" />
      <stop offset="100%" stopColor="#FEF08A" />
    </linearGradient>
  </defs>

  <!-- Deep Black Disc with Golden Outer Ring -->
  <circle cx="60" cy="60" r="57" fill="url(#favBadgeBg)" stroke="url(#favGold)" stroke-width="4" />
  <circle cx="60" cy="60" r="52.5" stroke="#F5B800" stroke-width="1" stroke-opacity="0.5" stroke-dasharray="3 3" />

  <!-- Outer Sparkles -->
  <path d="M21 28Q24 28 24 25Q24 28 27 28Q24 28 24 31Q24 28 21 28Z" fill="#F5B800" />
  <path d="M93 25Q96 25 96 22Q96 25 99 25Q96 25 96 28Q96 25 93 25Z" fill="#F5B800" />

  <!-- Popcorn Cup Base -->
  <path d="M37 60L42 98H78L83 60H37Z" fill="#0D0D0D" stroke="url(#favGold)" stroke-width="2.5" stroke-linejoin="round" />
  <!-- Gold Stripes -->
  <path d="M42 60L46 98H52L49 60H42Z" fill="url(#favGold)" />
  <path d="M57 60L58 98H62L63 60H57Z" fill="url(#favGold)" />
  <path d="M71 60L68 98H74L78 60H71Z" fill="url(#favGold)" />
  <!-- Tub Rim Band -->
  <rect x="35" y="58" width="50" height="5" rx="2.5" fill="url(#favGold)" stroke="#0D0D0D" stroke-width="1" />
  <path d="M60 74L61.5 78.5L66 78.5L62.5 81L64 85.5L60 83L56 85.5L57.5 81L54 78.5L58.5 78.5Z" fill="#FFFFFF" stroke="#0D0D0D" stroke-width="0.8" />

  <!-- Popcorn Puffs -->
  <ellipse cx="43" cy="54" rx="7" ry="6.5" fill="url(#favCream)" stroke="#B47B00" stroke-width="1.2" />
  <ellipse cx="36" cy="50" rx="5.5" ry="5" fill="#FFFDF5" stroke="#B47B00" stroke-width="1" />
  <ellipse cx="77" cy="54" rx="7" ry="6.5" fill="url(#favCream)" stroke="#B47B00" stroke-width="1.2" />
  <ellipse cx="84" cy="50" rx="5.5" ry="5" fill="#FFFDF5" stroke="#B47B00" stroke-width="1" />
  <ellipse cx="51" cy="53" rx="7.5" ry="7" fill="url(#favCream)" stroke="#B47B00" stroke-width="1.2" />
  <ellipse cx="69" cy="53" rx="7.5" ry="7" fill="url(#favCream)" stroke="#B47B00" stroke-width="1.2" />
  <ellipse cx="60" cy="51" rx="8" ry="7.5" fill="#FFFFFF" stroke="#B47B00" stroke-width="1.4" />
  <ellipse cx="49" cy="43" rx="6.5" ry="6" fill="#FFFDF5" stroke="#B47B00" stroke-width="1" />
  <ellipse cx="71" cy="43" rx="6.5" ry="6" fill="#FFFDF5" stroke="#B47B00" stroke-width="1" />
  <ellipse cx="60" cy="40" rx="7.5" ry="7" fill="url(#favCream)" stroke="#B47B00" stroke-width="1.2" />

  <!-- 5-Point Royal Crown -->
  <path d="M40 37L34 23L47 31L60 15L73 31L86 23L80 37H40Z" fill="url(#favGold)" stroke="#0D0D0D" stroke-width="2" stroke-linejoin="round" />
  <path d="M39 34H81V38H39V34Z" fill="#0D0D0D" stroke="url(#favGold)" stroke-width="1.2" />
  <circle cx="46" cy="36" r="1.5" fill="#FFFFFF" />
  <circle cx="60" cy="36" r="2" fill="url(#favGold)" stroke="#FFFFFF" stroke-width="0.8" />
  <circle cx="74" cy="36" r="1.5" fill="#FFFFFF" />
  <circle cx="34" cy="23" r="3.2" fill="#FFFFFF" stroke="#0D0D0D" stroke-width="1.2" />
  <circle cx="47" cy="31" r="2.8" fill="#FFFFFF" stroke="#0D0D0D" stroke-width="1" />
  <circle cx="60" cy="15" r="4.2" fill="#FFFFFF" stroke="#0D0D0D" stroke-width="1.4" />
  <circle cx="73" cy="31" r="2.8" fill="#FFFFFF" stroke="#0D0D0D" stroke-width="1" />
  <circle cx="86" cy="23" r="3.2" fill="#FFFFFF" stroke="#0D0D0D" stroke-width="1.2" />
</svg>
